<svg width="829" height="147" viewBox="0 0 829 147" fill="none" xmlns="http://www.w3.org/2000/svg">
<g clip-path="url(#clip0_4_2)">
<path d="M26 74.145H56.8873L81.5971 119.29V29L106.307 74.145H137.194" stroke="#FFA600" stroke-width="16.2" stroke-linecap="round" stroke-linejoin="round"/>
<path d="M217.904 93.096H192.752L188.72 105H171.536L195.92 37.608H214.928L239.312 105H221.936L217.904 93.096ZM213.68 80.424L205.328 55.752L197.072 80.424H213.68ZM267.085 50.664C270.861 50.664 274.157 51.432 276.973 52.968C279.853 54.504 282.061 56.52 283.597 59.016V51.432H300.013V104.904C300.013 109.832 299.021 114.28 297.037 118.248C295.117 122.28 292.141 125.48 288.109 127.848C284.141 130.216 279.181 131.4 273.229 131.4C265.293 131.4 258.861 129.512 253.933 125.736C249.005 122.024 246.189 116.968 245.485 110.568H261.709C262.221 112.616 263.437 114.216 265.357 115.368C267.277 116.584 269.645 117.192 272.461 117.192C275.853 117.192 278.541 116.2 280.525 114.216C282.573 112.296 283.597 109.192 283.597 104.904V97.32C281.997 99.816 279.789 101.864 276.973 103.464C274.157 105 270.861 105.768 267.085 105.768C262.669 105.768 258.669 104.648 255.085 102.408C251.501 100.104 248.653 96.872 246.541 92.712C244.493 88.488 243.469 83.624 243.469 78.12C243.469 72.616 244.493 67.784 246.541 63.624C248.653 59.464 251.501 56.264 255.085 54.024C258.669 51.784 262.669 50.664 267.085 50.664ZM283.597 78.216C283.597 74.12 282.445 70.888 280.141 68.52C277.901 66.152 275.149 64.968 271.885 64.968C268.621 64.968 265.837 66.152 263.533 68.52C261.293 70.824 260.173 74.024 260.173 78.12C260.173 82.216 261.293 85.48 263.533 87.912C265.837 90.28 268.621 91.464 271.885 91.464C275.149 91.464 277.901 90.28 280.141 87.912C282.445 85.544 283.597 82.312 283.597 78.216ZM320.146 45.864C317.266 45.864 314.898 45.032 313.042 43.368C311.25 41.64 310.354 39.528 310.354 37.032C310.354 34.472 311.25 32.36 313.042 30.696C314.898 28.968 317.266 28.104 320.146 28.104C322.962 28.104 325.266 28.968 327.058 30.696C328.914 32.36 329.842 34.472 329.842 37.032C329.842 39.528 328.914 41.64 327.058 43.368C325.266 45.032 322.962 45.864 320.146 45.864ZM328.306 51.432V105H311.89V51.432H328.306ZM372.842 50.856C379.114 50.856 384.106 52.904 387.818 57C391.594 61.032 393.482 66.6 393.482 73.704V105H377.162V75.912C377.162 72.328 376.234 69.544 374.378 67.56C372.522 65.576 370.026 64.584 366.89 64.584C363.754 64.584 361.258 65.576 359.402 67.56C357.546 69.544 356.618 72.328 356.618 75.912V105H340.202V51.432H356.618V58.536C358.282 56.168 360.522 54.312 363.338 52.968C366.154 51.56 369.322 50.856 372.842 50.856ZM449.617 105.672C444.689 105.672 440.273 104.872 436.369 103.272C432.465 101.672 429.329 99.304 426.961 96.168C424.657 93.032 423.441 89.256 423.313 84.84H440.785C441.041 87.336 441.905 89.256 443.377 90.6C444.849 91.88 446.769 92.52 449.137 92.52C451.569 92.52 453.489 91.976 454.897 90.888C456.305 89.736 457.009 88.168 457.009 86.184C457.009 84.52 456.433 83.144 455.281 82.056C454.193 80.968 452.817 80.072 451.153 79.368C449.553 78.664 447.249 77.864 444.241 76.968C439.889 75.624 436.337 74.28 433.585 72.936C430.833 71.592 428.465 69.608 426.481 66.984C424.497 64.36 423.505 60.936 423.505 56.712C423.505 50.44 425.777 45.544 430.321 42.024C434.865 38.44 440.785 36.648 448.081 36.648C455.505 36.648 461.489 38.44 466.033 42.024C470.577 45.544 473.009 50.472 473.329 56.808H455.569C455.441 54.632 454.641 52.936 453.169 51.72C451.697 50.44 449.809 49.8 447.505 49.8C445.521 49.8 443.921 50.344 442.705 51.432C441.489 52.456 440.881 53.96 440.881 55.944C440.881 58.12 441.905 59.816 443.953 61.032C446.001 62.248 449.201 63.56 453.553 64.968C457.905 66.44 461.425 67.848 464.113 69.192C466.865 70.536 469.233 72.488 471.217 75.048C473.201 77.608 474.193 80.904 474.193 84.936C474.193 88.776 473.201 92.264 471.217 95.4C469.297 98.536 466.481 101.032 462.769 102.888C459.057 104.744 454.673 105.672 449.617 105.672ZM534.792 77.352C534.792 78.888 534.696 80.488 534.504 82.152H497.352C497.608 85.48 498.664 88.04 500.52 89.832C502.44 91.56 504.776 92.424 507.528 92.424C511.624 92.424 514.472 90.696 516.072 87.24H533.544C532.648 90.76 531.016 93.928 528.648 96.744C526.344 99.56 523.432 101.768 519.912 103.368C516.392 104.968 512.456 105.768 508.104 105.768C502.856 105.768 498.184 104.648 494.088 102.408C489.992 100.168 486.792 96.968 484.488 92.808C482.184 88.648 481.032 83.784 481.032 78.216C481.032 72.648 482.152 67.784 484.392 63.624C486.696 59.464 489.896 56.264 493.992 54.024C498.088 51.784 502.792 50.664 508.104 50.664C513.288 50.664 517.896 51.752 521.928 53.928C525.96 56.104 529.096 59.208 531.336 63.24C533.64 67.272 534.792 71.976 534.792 77.352ZM517.992 73.032C517.992 70.216 517.032 67.976 515.112 66.312C513.192 64.648 510.792 63.816 507.912 63.816C505.16 63.816 502.824 64.616 500.904 66.216C499.048 67.816 497.896 70.088 497.448 73.032H517.992ZM576.092 50.856C582.364 50.856 587.356 52.904 591.068 57C594.844 61.032 596.732 66.6 596.732 73.704V105H580.412V75.912C580.412 72.328 579.484 69.544 577.628 67.56C575.772 65.576 573.276 64.584 570.14 64.584C567.004 64.584 564.508 65.576 562.652 67.56C560.796 69.544 559.868 72.328 559.868 75.912V105H543.452V51.432H559.868V58.536C561.532 56.168 563.772 54.312 566.588 52.968C569.404 51.56 572.572 50.856 576.092 50.856ZM629.932 105.768C625.26 105.768 621.1 104.968 617.452 103.368C613.804 101.768 610.924 99.592 608.812 96.84C606.7 94.024 605.516 90.888 605.26 87.432H621.484C621.676 89.288 622.54 90.792 624.076 91.944C625.612 93.096 627.5 93.672 629.74 93.672C631.788 93.672 633.356 93.288 634.444 92.52C635.596 91.688 636.172 90.632 636.172 89.352C636.172 87.816 635.372 86.696 633.772 85.992C632.172 85.224 629.58 84.392 625.996 83.496C622.156 82.6 618.956 81.672 616.396 80.712C613.836 79.688 611.628 78.12 609.772 76.008C607.916 73.832 606.988 70.92 606.988 67.272C606.988 64.2 607.82 61.416 609.484 58.92C611.212 56.36 613.708 54.344 616.972 52.872C620.3 51.4 624.236 50.664 628.78 50.664C635.5 50.664 640.78 52.328 644.62 55.656C648.524 58.984 650.764 63.4 651.34 68.904H636.172C635.916 67.048 635.084 65.576 633.676 64.488C632.332 63.4 630.54 62.856 628.3 62.856C626.38 62.856 624.908 63.24 623.884 64.008C622.86 64.712 622.348 65.704 622.348 66.984C622.348 68.52 623.148 69.672 624.748 70.44C626.412 71.208 628.972 71.976 632.428 72.744C636.396 73.768 639.628 74.792 642.124 75.816C644.62 76.776 646.796 78.376 648.652 80.616C650.572 82.792 651.564 85.736 651.628 89.448C651.628 92.584 650.732 95.4 648.94 97.896C647.212 100.328 644.684 102.248 641.356 103.656C638.092 105.064 634.284 105.768 629.932 105.768ZM686.055 105.768C680.807 105.768 676.071 104.648 671.847 102.408C667.687 100.168 664.391 96.968 661.959 92.808C659.591 88.648 658.407 83.784 658.407 78.216C658.407 72.712 659.623 67.88 662.055 63.72C664.487 59.496 667.815 56.264 672.039 54.024C676.263 51.784 680.999 50.664 686.247 50.664C691.495 50.664 696.231 51.784 700.455 54.024C704.679 56.264 708.007 59.496 710.439 63.72C712.871 67.88 714.087 72.712 714.087 78.216C714.087 83.72 712.839 88.584 710.343 92.808C707.911 96.968 704.551 100.168 700.263 102.408C696.039 104.648 691.303 105.768 686.055 105.768ZM686.055 91.56C689.191 91.56 691.847 90.408 694.023 88.104C696.263 85.8 697.383 82.504 697.383 78.216C697.383 73.928 696.295 70.632 694.119 68.328C692.007 66.024 689.383 64.872 686.247 64.872C683.047 64.872 680.391 66.024 678.279 68.328C676.167 70.568 675.111 73.864 675.111 78.216C675.111 82.504 676.135 85.8 678.183 88.104C680.295 90.408 682.919 91.56 686.055 91.56ZM739.212 60.36C741.132 57.416 743.532 55.112 746.412 53.448C749.292 51.72 752.492 50.856 756.012 50.856V68.232H751.5C747.404 68.232 744.332 69.128 742.284 70.92C740.236 72.648 739.212 75.72 739.212 80.136V105H722.796V51.432H739.212V60.36ZM785.65 105.768C780.978 105.768 776.818 104.968 773.17 103.368C769.522 101.768 766.642 99.592 764.53 96.84C762.418 94.024 761.234 90.888 760.978 87.432H777.202C777.394 89.288 778.258 90.792 779.794 91.944C781.33 93.096 783.218 93.672 785.458 93.672C787.506 93.672 789.074 93.288 790.162 92.52C791.314 91.688 791.89 90.632 791.89 89.352C791.89 87.816 791.09 86.696 789.49 85.992C787.89 85.224 785.298 84.392 781.714 83.496C777.874 82.6 774.674 81.672 772.114 80.712C769.554 79.688 767.346 78.12 765.49 76.008C763.634 73.832 762.706 70.92 762.706 67.272C762.706 64.2 763.538 61.416 765.202 58.92C766.93 56.36 769.426 54.344 772.69 52.872C776.018 51.4 779.954 50.664 784.498 50.664C791.218 50.664 796.498 52.328 800.338 55.656C804.242 58.984 806.482 63.4 807.058 68.904H791.89C791.634 67.048 790.802 65.576 789.394 64.488C788.05 63.4 786.258 62.856 784.018 62.856C782.098 62.856 780.626 63.24 779.602 64.008C778.578 64.712 778.066 65.704 778.066 66.984C778.066 68.52 778.866 69.672 780.466 70.44C782.13 71.208 784.69 71.976 788.146 72.744C792.114 73.768 795.346 74.792 797.842 75.816C800.338 76.776 802.514 78.376 804.37 80.616C806.29 82.792 807.282 85.736 807.346 89.448C807.346 92.584 806.45 95.4 804.658 97.896C802.93 100.328 800.402 102.248 797.074 103.656C793.81 105.064 790.002 105.768 785.65 105.768Z" fill="white"/>
</g>
<defs>
<clipPath id="clip0_4_2">
<rect width="829" height="147" fill="white"/>
</clipPath>
</defs>
</svg>
